<?xml version="1.0" standalone="no"?>
<!DOCTYPE svg PUBLIC "-//W3C//DTD SVG 20010904//EN"
 "http://www.w3.org/TR/2001/REC-SVG-20010904/DTD/svg10.dtd">
<svg version="1.0" xmlns="http://www.w3.org/2000/svg"
 width="400.000000pt" height="400.000000pt" viewBox="0 0 400.000000 400.000000"
 preserveAspectRatio="xMidYMid meet">
<metadata>
Created by potrace 1.14, written by Peter Selinger 2001-2017
</metadata>
<g transform="translate(0.000000,400.000000) scale(0.100000,-0.100000)"
fill="#000000" stroke="none">
<path d="M0 2000 l0 -2000 2000 0 2000 0 0 2000 0 2000 -2000 0 -2000 0 0
-2000z m1257 929 c-57 -37 -99 -89 -133 -162 -21 -47 -39 -159 -125 -764 -68
-482 -98 -722 -94 -753 8 -63 49 -143 92 -180 l35 -32 -203 4 c-186 3 -207 5
-244 25 -75 40 -122 109 -131 191 -6 54 176 1376 201 1457 30 99 130 197 234
229 32 10 101 15 230 15 l184 1 -46 -31z m2153 7 c81 -43 129 -113 136 -200 3
-33 -30 -295 -94 -747 -79 -557 -104 -706 -121 -742 -35 -73 -95 -133 -169
-169 l-66 -33 -201 -3 -200 -3 47 31 c58 38 100 90 134 163 21 47 39 159 125
764 68 482 98 722 94 753 -8 63 -49 143 -92 180 l-35 32 203 -4 c176 -3 209
-6 239 -22z m-650 -273 c0 -5 -9 -80 -22 -169 l-22 -160 -232 -260 c-127 -142
-230 -260 -229 -262 2 -2 82 -27 179 -56 98 -30 180 -57 183 -60 8 -8 -36
-348 -45 -357 -7 -7 -1262 367 -1273 379 -4 4 7 106 25 227 l31 220 178 3 178
2 -6 -32 c-13 -81 -23 -153 -20 -156 7 -7 201 -62 211 -60 6 2 91 93 189 203
l179 200 -442 3 c-243 1 -442 6 -442 10 0 17 41 308 45 320 3 9 146 12 670 12
366 0 665 -3 665 -7z"/>
</g>
</svg>
